<svg width="61" height="46" viewBox="0 0 61 46" fill="none" xmlns="http://www.w3.org/2000/svg">
<rect width="61" height="46" fill="#BD1111"/>
<path d="M28.096 29.576C27.776 29.576 27.536 29.552 27.376 29.504C27.232 29.456 27.12 29.4 27.04 29.336C26.48 28.792 25.888 28.168 25.264 27.464C24.64 26.76 24.04 26.008 23.464 25.208C22.936 25.928 22.424 26.64 21.928 27.344C21.432 28.048 20.96 28.736 20.512 29.408C20.464 29.456 20.376 29.48 20.248 29.48C20.136 29.48 19.992 29.448 19.816 29.384C19.656 29.32 19.528 29.24 19.432 29.144C19.944 28.248 20.464 27.368 20.992 26.504C21.536 25.624 22.08 24.76 22.624 23.912C22.016 22.936 21.496 21.928 21.064 20.888C20.632 19.832 20.352 18.792 20.224 17.768L20.824 17.36L22.744 18.32C22.824 18.912 22.96 19.528 23.152 20.168C23.344 20.792 23.576 21.424 23.848 22.064C24.36 21.312 24.864 20.584 25.36 19.88C25.872 19.16 26.392 18.472 26.92 17.816L28.864 17.48L29.392 17.864C28.528 18.84 27.696 19.816 26.896 20.792C26.096 21.768 25.336 22.736 24.616 23.696C25.128 24.672 25.704 25.648 26.344 26.624C26.984 27.584 27.648 28.512 28.336 29.408C28.336 29.456 28.304 29.496 28.24 29.528C28.192 29.56 28.144 29.576 28.096 29.576ZM34.4742 29.792C33.7062 29.792 33.0022 29.592 32.3622 29.192C31.7222 28.808 31.2102 28.24 30.8262 27.488C30.4422 26.72 30.2502 25.776 30.2502 24.656C30.2502 23.888 30.3942 23.104 30.6822 22.304C30.9862 21.504 31.4742 20.752 32.1462 20.048C32.8182 19.344 33.7222 18.752 34.8582 18.272C35.9942 17.792 37.3942 17.488 39.0582 17.36L39.3222 18.032L38.1702 19.352C38.5702 19.832 38.8902 20.384 39.1302 21.008C39.3862 21.632 39.5142 22.448 39.5142 23.456C39.5142 24.192 39.4102 24.936 39.2022 25.688C39.0102 26.44 38.7062 27.128 38.2902 27.752C37.8742 28.36 37.3462 28.848 36.7062 29.216C36.0822 29.6 35.3382 29.792 34.4742 29.792ZM34.7382 27.608C35.4422 27.608 36.0502 27.4 36.5622 26.984C37.0742 26.552 37.4662 26.04 37.7382 25.448C38.0102 24.856 38.1462 24.296 38.1462 23.768C38.1462 23 38.0662 22.224 37.9062 21.44C37.7462 20.656 37.3862 19.936 36.8262 19.28C36.0422 19.408 35.3142 19.696 34.6422 20.144C33.9702 20.592 33.4342 21.16 33.0342 21.848C32.6342 22.52 32.4342 23.288 32.4342 24.152C32.4342 25.144 32.6342 25.968 33.0342 26.624C33.4342 27.28 34.0022 27.608 34.7382 27.608Z" fill="#FFD2D2"/>
<line x1="16.25" x2="16.25" y2="46" stroke="#FFD2D2" stroke-width="0.5"/>
<line x1="42.25" x2="42.25" y2="46" stroke="#FFD2D2" stroke-opacity="0.823529" stroke-width="0.5"/>
<line y1="14.75" x2="61" y2="14.75" stroke="#FFD2D2" stroke-opacity="0.823529" stroke-width="0.5"/>
<line y1="32.75" x2="61" y2="32.75" stroke="#FFD2D2" stroke-opacity="0.823529" stroke-width="0.5"/>
</svg>
