<svg width="16" height="16" viewBox="0 0 16 16" fill="none" xmlns="http://www.w3.org/2000/svg">
<rect width="16" height="16" rx="3" fill="#BD1111"/>
<path d="M7.4635 10.156C7.37683 10.156 7.31183 10.1495 7.2685 10.1365C7.2295 10.1235 7.19917 10.1083 7.1775 10.091C7.02583 9.94367 6.8655 9.77467 6.6965 9.584C6.5275 9.39333 6.365 9.18967 6.209 8.973C6.066 9.168 5.92733 9.36083 5.793 9.5515C5.65867 9.74217 5.53083 9.9285 5.4095 10.1105C5.3965 10.1235 5.37267 10.13 5.338 10.13C5.30767 10.13 5.26867 10.1213 5.221 10.104C5.17767 10.0867 5.143 10.065 5.117 10.039C5.25567 9.79633 5.3965 9.558 5.5395 9.324C5.68683 9.08567 5.83417 8.85167 5.9815 8.622C5.81683 8.35767 5.676 8.08467 5.559 7.803C5.442 7.517 5.36617 7.23533 5.3315 6.958L5.494 6.8475L6.014 7.1075C6.03567 7.26783 6.0725 7.43467 6.1245 7.608C6.1765 7.777 6.23933 7.94817 6.313 8.1215C6.45167 7.91783 6.58817 7.72067 6.7225 7.53C6.86117 7.335 7.002 7.14867 7.145 6.971L7.6715 6.88L7.8145 6.984C7.5805 7.24833 7.35517 7.51267 7.1385 7.777C6.92183 8.04133 6.716 8.3035 6.521 8.5635C6.65967 8.82783 6.81567 9.09217 6.989 9.3565C7.16233 9.6165 7.34217 9.86783 7.5285 10.1105C7.5285 10.1235 7.51983 10.1343 7.5025 10.143C7.4895 10.1517 7.4765 10.156 7.4635 10.156ZM9.19093 10.2145C8.98293 10.2145 8.79226 10.1603 8.61893 10.052C8.44559 9.948 8.30693 9.79417 8.20293 9.5905C8.09893 9.3825 8.04693 9.12683 8.04693 8.8235C8.04693 8.6155 8.08593 8.40317 8.16393 8.1865C8.24626 7.96983 8.37843 7.76617 8.56043 7.5755C8.74243 7.38483 8.98726 7.2245 9.29493 7.0945C9.60259 6.9645 9.98176 6.88217 10.4324 6.8475L10.5039 7.0295L10.1919 7.387C10.3003 7.517 10.3869 7.6665 10.4519 7.8355C10.5213 8.0045 10.5559 8.2255 10.5559 8.4985C10.5559 8.69783 10.5278 8.89933 10.4714 9.103C10.4194 9.30667 10.3371 9.493 10.2244 9.662C10.1118 9.82667 9.96876 9.95883 9.79543 10.0585C9.62643 10.1625 9.42493 10.2145 9.19093 10.2145ZM9.26243 9.623C9.45309 9.623 9.61776 9.56667 9.75643 9.454C9.89509 9.337 10.0013 9.19833 10.0749 9.038C10.1486 8.87767 10.1854 8.726 10.1854 8.583C10.1854 8.375 10.1638 8.16483 10.1204 7.9525C10.0771 7.74017 9.97959 7.54517 9.82793 7.3675C9.61559 7.40217 9.41843 7.48017 9.23643 7.6015C9.05443 7.72283 8.90926 7.87667 8.80093 8.063C8.69259 8.245 8.63843 8.453 8.63843 8.687C8.63843 8.95567 8.69259 9.17883 8.80093 9.3565C8.90926 9.53417 9.06309 9.623 9.26243 9.623Z" fill="#FFD2D2"/>
<line x1="4.34672" x2="4.34672" y2="16" stroke="#FFD2D2" stroke-width="0.3"/>
<line x1="11.1664" x2="11.1664" y2="16" stroke="#FFD2D2" stroke-opacity="0.823529" stroke-width="0.3"/>
<line y1="5.06739" x2="16" y2="5.06739" stroke="#FFD2D2" stroke-opacity="0.823529" stroke-width="0.3"/>
<line y1="11.3283" x2="16" y2="11.3283" stroke="#FFD2D2" stroke-opacity="0.823529" stroke-width="0.3"/>
</svg>
